solid ASCII
  facet normal 5.773503e-01 5.773503e-01 -5.773503e-01
    outer loop
      vertex   4.706640e+01 4.707900e+01 0.000000e+00
      vertex   4.706640e+01 5.000000e+01 2.921000e+00
      vertex   4.998740e+01 4.707900e+01 2.921000e+00
    endloop
  endfacet
  facet normal -5.773503e-01 5.773503e-01 -5.773503e-01
    outer loop
      vertex   -1.260000e-02 4.707900e+01 2.921000e+00
      vertex   2.908400e+00 5.000000e+01 2.921000e+00
      vertex   2.908400e+00 4.707900e+01 0.000000e+00
    endloop
  endfacet
  facet normal 0.000000e+00 7.071068e-01 -7.071068e-01
    outer loop
      vertex   4.706640e+01 4.707900e+01 0.000000e+00
      vertex   2.908400e+00 4.707900e+01 0.000000e+00
      vertex   4.706640e+01 5.000000e+01 2.921000e+00
    endloop
  endfacet
  facet normal 0.000000e+00 7.071068e-01 -7.071068e-01
    outer loop
      vertex   4.706640e+01 5.000000e+01 2.921000e+00
      vertex   2.908400e+00 4.707900e+01 0.000000e+00
      vertex   2.908400e+00 5.000000e+01 2.921000e+00
    endloop
  endfacet
  facet normal 5.773503e-01 -5.773503e-01 -5.773503e-01
    outer loop
      vertex   4.998740e+01 2.921000e+00 2.921000e+00
      vertex   4.706640e+01 0.000000e+00 2.921000e+00
      vertex   4.706640e+01 2.921000e+00 0.000000e+00
    endloop
  endfacet
  facet normal 5.773503e-01 5.773503e-01 5.773503e-01
    outer loop
      vertex   4.998740e+01 4.707900e+01 9.707900e+01
      vertex   4.706640e+01 5.000000e+01 9.707900e+01
      vertex   4.706640e+01 4.707900e+01 1.000000e+02
    endloop
  endfacet
  facet normal -5.773503e-01 -5.773503e-01 -5.773503e-01
    outer loop
      vertex   2.908400e+00 0.000000e+00 2.921000e+00
      vertex   -1.260000e-02 2.921000e+00 2.921000e+00
      vertex   2.908400e+00 2.921000e+00 0.000000e+00
    endloop
  endfacet
  facet normal -7.071068e-01 -0.000000e+00 -7.071068e-01
    outer loop
      vertex   -1.260000e-02 4.707900e+01 2.921000e+00
      vertex   2.908400e+00 4.707900e+01 0.000000e+00
      vertex   -1.260000e-02 2.921000e+00 2.921000e+00
    endloop
  endfacet
  facet normal -7.071068e-01 0.000000e+00 -7.071068e-01
    outer loop
      vertex   -1.260000e-02 2.921000e+00 2.921000e+00
      vertex   2.908400e+00 4.707900e+01 0.000000e+00
      vertex   2.908400e+00 2.921000e+00 0.000000e+00
    endloop
  endfacet
  facet normal 0.000000e+00 -7.071068e-01 -7.071068e-01
    outer loop
      vertex   2.908400e+00 2.921000e+00 0.000000e+00
      vertex   4.706640e+01 2.921000e+00 0.000000e+00
      vertex   2.908400e+00 0.000000e+00 2.921000e+00
    endloop
  endfacet
  facet normal 0.000000e+00 -7.071068e-01 -7.071068e-01
    outer loop
      vertex   2.908400e+00 0.000000e+00 2.921000e+00
      vertex   4.706640e+01 2.921000e+00 0.000000e+00
      vertex   4.706640e+01 0.000000e+00 2.921000e+00
    endloop
  endfacet
  facet normal -5.773503e-01 5.773503e-01 5.773503e-01
    outer loop
      vertex   -1.260000e-02 4.707900e+01 9.707900e+01
      vertex   2.908400e+00 4.707900e+01 1.000000e+02
      vertex   2.908400e+00 5.000000e+01 9.707900e+01
    endloop
  endfacet
  facet normal -0.000000e+00 7.071068e-01 7.071068e-01
    outer loop
      vertex   2.908400e+00 4.707900e+01 1.000000e+02
      vertex   4.706640e+01 4.707900e+01 1.000000e+02
      vertex   2.908400e+00 5.000000e+01 9.707900e+01
    endloop
  endfacet
  facet normal -0.000000e+00 7.071068e-01 7.071068e-01
    outer loop
      vertex   2.908400e+00 5.000000e+01 9.707900e+01
      vertex   4.706640e+01 4.707900e+01 1.000000e+02
      vertex   4.706640e+01 5.000000e+01 9.707900e+01
    endloop
  endfacet
  facet normal -7.071068e-01 7.071068e-01 0.000000e+00
    outer loop
      vertex   -1.260000e-02 4.707900e+01 2.921000e+00
      vertex   -1.260000e-02 4.707900e+01 9.707900e+01
      vertex   2.908400e+00 5.000000e+01 2.921000e+00
    endloop
  endfacet
  facet normal -7.071068e-01 7.071068e-01 0.000000e+00
    outer loop
      vertex   2.908400e+00 5.000000e+01 2.921000e+00
      vertex   -1.260000e-02 4.707900e+01 9.707900e+01
      vertex   2.908400e+00 5.000000e+01 9.707900e+01
    endloop
  endfacet
  facet normal 5.773503e-01 -5.773503e-01 5.773503e-01
    outer loop
      vertex   4.998740e+01 2.921000e+00 9.707900e+01
      vertex   4.706640e+01 2.921000e+00 1.000000e+02
      vertex   4.706640e+01 0.000000e+00 9.707900e+01
    endloop
  endfacet
  facet normal -5.773503e-01 -5.773503e-01 5.773503e-01
    outer loop
      vertex   2.908400e+00 0.000000e+00 9.707900e+01
      vertex   2.908400e+00 2.921000e+00 1.000000e+02
      vertex   -1.260000e-02 2.921000e+00 9.707900e+01
    endloop
  endfacet
  facet normal -7.071068e-01 0.000000e+00 7.071068e-01
    outer loop
      vertex   -1.260000e-02 2.921000e+00 9.707900e+01
      vertex   2.908400e+00 2.921000e+00 1.000000e+02
      vertex   -1.260000e-02 4.707900e+01 9.707900e+01
    endloop
  endfacet
  facet normal -7.071068e-01 0.000000e+00 7.071068e-01
    outer loop
      vertex   -1.260000e-02 4.707900e+01 9.707900e+01
      vertex   2.908400e+00 2.921000e+00 1.000000e+02
      vertex   2.908400e+00 4.707900e+01 1.000000e+02
    endloop
  endfacet
  facet normal -7.071068e-01 -7.071068e-01 0.000000e+00
    outer loop
      vertex   2.908400e+00 0.000000e+00 2.921000e+00
      vertex   2.908400e+00 0.000000e+00 9.707900e+01
      vertex   -1.260000e-02 2.921000e+00 2.921000e+00
    endloop
  endfacet
  facet normal -7.071068e-01 -7.071068e-01 0.000000e+00
    outer loop
      vertex   -1.260000e-02 2.921000e+00 2.921000e+00
      vertex   2.908400e+00 0.000000e+00 9.707900e+01
      vertex   -1.260000e-02 2.921000e+00 9.707900e+01
    endloop
  endfacet
  facet normal 0.000000e+00 -7.071068e-01 7.071068e-01
    outer loop
      vertex   4.706640e+01 2.921000e+00 1.000000e+02
      vertex   2.908400e+00 2.921000e+00 1.000000e+02
      vertex   4.706640e+01 0.000000e+00 9.707900e+01
    endloop
  endfacet
  facet normal 0.000000e+00 -7.071068e-01 7.071068e-01
    outer loop
      vertex   4.706640e+01 0.000000e+00 9.707900e+01
      vertex   2.908400e+00 2.921000e+00 1.000000e+02
      vertex   2.908400e+00 0.000000e+00 9.707900e+01
    endloop
  endfacet
  facet normal 7.071068e-01 -7.071068e-01 0.000000e+00
    outer loop
      vertex   4.998740e+01 2.921000e+00 2.921000e+00
      vertex   4.998740e+01 2.921000e+00 9.707900e+01
      vertex   4.706640e+01 0.000000e+00 2.921000e+00
    endloop
  endfacet
  facet normal 7.071068e-01 -7.071068e-01 0.000000e+00
    outer loop
      vertex   4.706640e+01 0.000000e+00 2.921000e+00
      vertex   4.998740e+01 2.921000e+00 9.707900e+01
      vertex   4.706640e+01 0.000000e+00 9.707900e+01
    endloop
  endfacet
  facet normal 7.071068e-01 0.000000e+00 7.071068e-01
    outer loop
      vertex   4.998740e+01 4.707900e+01 9.707900e+01
      vertex   4.706640e+01 4.707900e+01 1.000000e+02
      vertex   4.998740e+01 2.921000e+00 9.707900e+01
    endloop
  endfacet
  facet normal 7.071068e-01 0.000000e+00 7.071068e-01
    outer loop
      vertex   4.998740e+01 2.921000e+00 9.707900e+01
      vertex   4.706640e+01 4.707900e+01 1.000000e+02
      vertex   4.706640e+01 2.921000e+00 1.000000e+02
    endloop
  endfacet
  facet normal 7.071068e-01 7.071068e-01 -0.000000e+00
    outer loop
      vertex   4.706640e+01 5.000000e+01 2.921000e+00
      vertex   4.706640e+01 5.000000e+01 9.707900e+01
      vertex   4.998740e+01 4.707900e+01 2.921000e+00
    endloop
  endfacet
  facet normal 7.071068e-01 7.071068e-01 -0.000000e+00
    outer loop
      vertex   4.998740e+01 4.707900e+01 2.921000e+00
      vertex   4.706640e+01 5.000000e+01 9.707900e+01
      vertex   4.998740e+01 4.707900e+01 9.707900e+01
    endloop
  endfacet
  facet normal 7.071068e-01 0.000000e+00 -7.071068e-01
    outer loop
      vertex   4.998740e+01 2.921000e+00 2.921000e+00
      vertex   4.706640e+01 2.921000e+00 0.000000e+00
      vertex   4.998740e+01 4.707900e+01 2.921000e+00
    endloop
  endfacet
  facet normal 7.071068e-01 0.000000e+00 -7.071068e-01
    outer loop
      vertex   4.998740e+01 4.707900e+01 2.921000e+00
      vertex   4.706640e+01 2.921000e+00 0.000000e+00
      vertex   4.706640e+01 4.707900e+01 0.000000e+00
    endloop
  endfacet
  facet normal -0.000000e+00 -0.000000e+00 -1.000000e+00
    outer loop
      vertex   4.706640e+01 4.707900e+01 0.000000e+00
      vertex   4.706640e+01 2.921000e+00 0.000000e+00
      vertex   2.908400e+00 4.707900e+01 0.000000e+00
    endloop
  endfacet
  facet normal 0.000000e+00 0.000000e+00 -1.000000e+00
    outer loop
      vertex   2.908400e+00 4.707900e+01 0.000000e+00
      vertex   4.706640e+01 2.921000e+00 0.000000e+00
      vertex   2.908400e+00 2.921000e+00 0.000000e+00
    endloop
  endfacet
  facet normal -1.000000e+00 0.000000e+00 0.000000e+00
    outer loop
      vertex   -1.260000e-02 2.921000e+00 2.921000e+00
      vertex   -1.260000e-02 2.921000e+00 9.707900e+01
      vertex   -1.260000e-02 4.707900e+01 2.921000e+00
    endloop
  endfacet
  facet normal -1.000000e+00 0.000000e+00 0.000000e+00
    outer loop
      vertex   -1.260000e-02 4.707900e+01 2.921000e+00
      vertex   -1.260000e-02 2.921000e+00 9.707900e+01
      vertex   -1.260000e-02 4.707900e+01 9.707900e+01
    endloop
  endfacet
  facet normal 0.000000e+00 -1.000000e+00 0.000000e+00
    outer loop
      vertex   4.706640e+01 0.000000e+00 2.921000e+00
      vertex   4.706640e+01 0.000000e+00 9.707900e+01
      vertex   2.908400e+00 0.000000e+00 2.921000e+00
    endloop
  endfacet
  facet normal 0.000000e+00 -1.000000e+00 0.000000e+00
    outer loop
      vertex   2.908400e+00 0.000000e+00 2.921000e+00
      vertex   4.706640e+01 0.000000e+00 9.707900e+01
      vertex   2.908400e+00 0.000000e+00 9.707900e+01
    endloop
  endfacet
  facet normal -0.000000e+00 0.000000e+00 1.000000e+00
    outer loop
      vertex   2.908400e+00 4.707900e+01 1.000000e+02
      vertex   2.908400e+00 2.921000e+00 1.000000e+02
      vertex   4.706640e+01 4.707900e+01 1.000000e+02
    endloop
  endfacet
  facet normal 0.000000e+00 0.000000e+00 1.000000e+00
    outer loop
      vertex   4.706640e+01 4.707900e+01 1.000000e+02
      vertex   2.908400e+00 2.921000e+00 1.000000e+02
      vertex   4.706640e+01 2.921000e+00 1.000000e+02
    endloop
  endfacet
  facet normal 0.000000e+00 1.000000e+00 0.000000e+00
    outer loop
      vertex   4.706640e+01 5.000000e+01 9.707900e+01
      vertex   4.706640e+01 5.000000e+01 2.921000e+00
      vertex   2.908400e+00 5.000000e+01 9.707900e+01
    endloop
  endfacet
  facet normal 0.000000e+00 1.000000e+00 0.000000e+00
    outer loop
      vertex   2.908400e+00 5.000000e+01 9.707900e+01
      vertex   4.706640e+01 5.000000e+01 2.921000e+00
      vertex   2.908400e+00 5.000000e+01 2.921000e+00
    endloop
  endfacet
  facet normal 1.000000e+00 -0.000000e+00 0.000000e+00
    outer loop
      vertex   4.998740e+01 2.921000e+00 9.707900e+01
      vertex   4.998740e+01 2.921000e+00 2.921000e+00
      vertex   4.998740e+01 4.707900e+01 9.707900e+01
    endloop
  endfacet
  facet normal 1.000000e+00 0.000000e+00 0.000000e+00
    outer loop
      vertex   4.998740e+01 4.707900e+01 9.707900e+01
      vertex   4.998740e+01 2.921000e+00 2.921000e+00
      vertex   4.998740e+01 4.707900e+01 2.921000e+00
    endloop
  endfacet
endsolid
